<svg xmlns="http://www.w3.org/2000/svg" xmlns:xlink="http://www.w3.org/1999/xlink" width="264.261" height="77.389" viewBox="0 0 264.261 77.389">
  <defs>
    <linearGradient id="linear-gradient" x1="1.001" y1="-4.56" x2="-0.294" y2="-3.884" gradientUnits="objectBoundingBox">
      <stop offset="0" stop-color="#00a0ff"/>
      <stop offset="0.007" stop-color="#00a1ff"/>
      <stop offset="0.26" stop-color="#00beff"/>
      <stop offset="0.512" stop-color="#00d2ff"/>
      <stop offset="0.76" stop-color="#00dfff"/>
      <stop offset="1" stop-color="#00e3ff"/>
    </linearGradient>
    <linearGradient id="linear-gradient-2" x1="1.183" y1="-12.994" x2="-1.192" y2="-12.994" gradientUnits="objectBoundingBox">
      <stop offset="0" stop-color="#ffe000"/>
      <stop offset="0.409" stop-color="#ffbd00"/>
      <stop offset="0.775" stop-color="orange"/>
      <stop offset="1" stop-color="#ff9c00"/>
    </linearGradient>
    <linearGradient id="linear-gradient-3" x1="0.43" y1="-9.449" x2="-0.93" y2="-7.664" gradientUnits="objectBoundingBox">
      <stop offset="0" stop-color="#ff3a44"/>
      <stop offset="1" stop-color="#c31162"/>
    </linearGradient>
    <linearGradient id="linear-gradient-4" x1="-0.617" y1="-8.879" x2="-0.01" y2="-8.081" gradientUnits="objectBoundingBox">
      <stop offset="0" stop-color="#32a071"/>
      <stop offset="0.068" stop-color="#2da771"/>
      <stop offset="0.476" stop-color="#15cf74"/>
      <stop offset="0.801" stop-color="#06e775"/>
      <stop offset="1" stop-color="#00f076"/>
    </linearGradient>
  </defs>
  <g id="g10" transform="translate(-1079.246 -424.249)">
    <g id="g12" transform="translate(1079.246 424.249)">
      <path id="path14" d="M1332.778,501.638H1089a9.744,9.744,0,0,1-9.751-9.674V433.923a9.745,9.745,0,0,1,9.751-9.674h243.78a9.744,9.744,0,0,1,9.751,9.674v58.041A9.744,9.744,0,0,1,1332.778,501.638Z" transform="translate(-1078.267 -424.249)"/>
      <path id="path16" d="M1333.72,425.8a8.181,8.181,0,0,1,8.219,8.123v58.041a8.181,8.181,0,0,1-8.219,8.123H1089.033a8.181,8.181,0,0,1-8.219-8.123V433.923a8.181,8.181,0,0,1,8.219-8.123H1333.72m0-1.55H1089.033a9.763,9.763,0,0,0-9.787,9.674v58.041a9.763,9.763,0,0,0,9.787,9.674H1333.72a9.763,9.763,0,0,0,9.787-9.674V433.923A9.763,9.763,0,0,0,1333.72,424.249Z" transform="translate(-1079.246 -424.249)" fill="#a6a6a6"/>
      <g id="g18" transform="translate(80.947 13.282)">
        <path id="path20" d="M1345.259,472.486a5.247,5.247,0,0,1-1.454,3.874,5.756,5.756,0,0,1-4.321,1.719,5.974,5.974,0,0,1-4.319-1.739,6.139,6.139,0,0,1,0-8.644,5.944,5.944,0,0,1,4.319-1.748,6.213,6.213,0,0,1,2.41.491,4.78,4.78,0,0,1,1.835,1.294l-1.023,1.021a4.011,4.011,0,0,0-3.222-1.369,4.513,4.513,0,0,0-3.21,1.284,4.835,4.835,0,0,0,0,6.7,4.554,4.554,0,0,0,3.21,1.284,4.491,4.491,0,0,0,3.279-1.294,3.62,3.62,0,0,0,.983-2.353h-4.262v-1.4h5.686A3.93,3.93,0,0,1,1345.259,472.486Z" transform="translate(-1333.386 -465.949)" fill="#fff" stroke="#fff" stroke-miterlimit="10" stroke-width="0.16"/>
      </g>
      <g id="g22" transform="translate(94.987 13.548)">
        <path id="path24" d="M1384.32,468.208h-5.342v3.676h4.815v1.4h-4.815v3.676h5.342v1.424h-6.854v-11.6h6.854Z" transform="translate(-1377.466 -466.784)" fill="#fff" stroke="#fff" stroke-miterlimit="10" stroke-width="0.16"/>
      </g>
      <g id="g26" transform="translate(103.419 13.548)">
        <path id="path28" d="M1408.728,478.383h-1.512V468.208h-3.276v-1.424h8.067v1.424h-3.279Z" transform="translate(-1403.939 -466.784)" fill="#fff" stroke="#fff" stroke-miterlimit="10" stroke-width="0.16"/>
      </g>
      <g id="g30" transform="translate(117.325 13.548)">
        <path id="path32" d="M1447.6,478.383v-11.6h1.51v11.6Z" transform="translate(-1447.596 -466.784)" fill="#fff" stroke="#fff" stroke-miterlimit="10" stroke-width="0.16"/>
      </g>
      <g id="g34" transform="translate(120.738 13.548)">
        <path id="path36" d="M1463.1,478.383h-1.5V468.208h-3.289v-1.424h8.077v1.424H1463.1Z" transform="translate(-1458.313 -466.784)" fill="#fff" stroke="#fff" stroke-miterlimit="10" stroke-width="0.16"/>
      </g>
      <g id="g38" transform="translate(133.746 13.282)">
        <path id="path40" d="M1509.494,476.321a6.153,6.153,0,0,1-8.613,0,6.226,6.226,0,0,1,0-8.614,6.129,6.129,0,0,1,8.6.01,6.2,6.2,0,0,1,.01,8.6Zm-7.5-.972a4.552,4.552,0,0,0,6.377,0,4.9,4.9,0,0,0,0-6.67,4.551,4.551,0,0,0-6.377,0,4.9,4.9,0,0,0,0,6.67Z" transform="translate(-1499.151 -465.949)" fill="#fff" stroke="#fff" stroke-miterlimit="10" stroke-width="0.16"/>
      </g>
      <g id="g42" transform="translate(147.94 13.548)">
        <path id="path44" d="M1543.715,478.383v-11.6h1.835l5.706,9.021h.066l-.066-2.23v-6.791h1.509v11.6h-1.575l-5.975-9.466h-.066l.066,2.239v7.226Z" transform="translate(-1543.715 -466.784)" fill="#fff" stroke="#fff" stroke-miterlimit="10" stroke-width="0.16"/>
      </g>
      <path id="path46" d="M1384.5,536.9a8.23,8.23,0,1,0,8.364,8.23A8.16,8.16,0,0,0,1384.5,536.9Zm0,13.217a5,5,0,1,1,4.7-4.987A4.781,4.781,0,0,1,1384.5,550.114ZM1366.277,536.9a8.23,8.23,0,1,0,8.354,8.23A8.155,8.155,0,0,0,1366.277,536.9Zm0,13.217a5,5,0,1,1,4.693-4.987A4.788,4.788,0,0,1,1366.277,550.114Zm-21.689-10.694v3.5h8.449a7.22,7.22,0,0,1-1.921,4.392,8.732,8.732,0,0,1-6.528,2.552,9.287,9.287,0,0,1,0-18.573,9.018,9.018,0,0,1,6.367,2.493l2.493-2.464a12.4,12.4,0,0,0-8.86-3.523,12.786,12.786,0,1,0,0,25.562,11.893,11.893,0,0,0,9.024-3.589,11.453,11.453,0,0,0,3.058-8.162,11.568,11.568,0,0,0-.191-2.184Zm88.689,2.711a7.713,7.713,0,0,0-7.13-5.233,7.862,7.862,0,0,0-7.847,8.23,8.1,8.1,0,0,0,8.258,8.227,8.277,8.277,0,0,0,6.94-3.647l-2.839-1.869a4.77,4.77,0,0,1-4.1,2.276,4.238,4.238,0,0,1-4.032-2.493l11.135-4.554Zm-11.353,2.74a4.539,4.539,0,0,1,4.348-4.8,3.241,3.241,0,0,1,3.1,1.746Zm-9.051,7.983h3.661V528.67h-3.661Zm-5.995-14.123h-.122a5.8,5.8,0,0,0-4.378-1.833,8.232,8.232,0,0,0,0,16.457,5.715,5.715,0,0,0,4.378-1.87h.122v1.18c0,3.146-1.7,4.837-4.443,4.837a4.619,4.619,0,0,1-4.2-2.939l-3.183,1.313a7.943,7.943,0,0,0,7.38,4.866c4.292,0,7.913-2.5,7.913-8.568V537.4h-3.47Zm-4.187,11.383a5,5,0,0,1,0-9.976c2.486,0,4.446,2.116,4.446,5.016C1407.138,548.027,1405.178,550.114,1402.692,550.114Zm47.724-21.444h-8.755v24.184h3.651V543.69h5.1c4.055,0,8.031-2.9,8.031-7.512S1454.46,528.67,1450.415,528.67Zm.1,11.657h-5.2v-8.293h5.2a4.149,4.149,0,1,1,0,8.293Zm22.568-3.475c-2.637,0-5.381,1.151-6.509,3.7l3.24,1.342a3.465,3.465,0,0,1,3.335-1.778c1.894,0,3.815,1.125,3.844,3.11v.254a8.1,8.1,0,0,0-3.815-.936c-3.489,0-7.045,1.9-7.045,5.441,0,3.241,2.858,5.328,6.071,5.328a5.183,5.183,0,0,0,4.664-2.37h.125v1.869h3.526v-9.277C1480.514,539.25,1477.275,536.851,1473.078,536.851Zm-.44,13.253c-1.194,0-2.858-.585-2.858-2.048,0-1.871,2.075-2.59,3.871-2.59a6.608,6.608,0,0,1,3.337.813A4.414,4.414,0,0,1,1472.638,550.1Zm20.722-12.723-4.2,10.484h-.125l-4.338-10.484h-3.937l6.519,14.651-3.719,8.152h3.814l10.044-22.8Zm-32.908,15.473h3.661V528.67h-3.661Z" transform="translate(-1251.13 -494.812)" fill="#fff"/>
      <g id="g48" transform="translate(19.519 14.445)">
        <path id="path64" d="M1141.434,469.741a3.824,3.824,0,0,0-.908,2.721v42.786a3.824,3.824,0,0,0,.908,2.721l.142.131,24.259-23.966v-.566L1141.576,469.6Z" transform="translate(-1140.526 -469.601)" fill="url(#linear-gradient)"/>
      </g>
      <g id="g66" transform="translate(44.827 30.419)">
        <path id="path78" d="M1228.06,536.3l-8.077-7.993v-.566l8.087-7.993.181.1,9.577,5.386c2.733,1.528,2.733,4.043,0,5.582l-9.577,5.376Z" transform="translate(-1219.983 -519.751)" fill="url(#linear-gradient-2)"/>
      </g>
      <g id="g80" transform="translate(20.426 38.694)">
        <path id="path88" d="M1176.045,553.9l-8.268-8.172-24.4,24.119c.908.943,2.388,1.057,4.071.114l28.6-16.061" transform="translate(-1143.376 -545.733)" fill="url(#linear-gradient-3)"/>
      </g>
      <g id="g90" transform="translate(20.426 13.817)">
        <path id="path104" d="M1176.045,484.335l-28.6-16.06c-1.683-.934-3.164-.82-4.071.123l24.4,24.109Z" transform="translate(-1143.376 -467.629)" fill="url(#linear-gradient-4)"/>
      </g>
    </g>
  </g>
</svg>
